<mxfile host="app.diagrams.net" modified="2021-12-08T03:50:13.088Z" agent="5.0 (Windows NT 10.0; Win64; x64) AppleWebKit/537.36 (KHTML, like Gecko) Chrome/96.0.4664.55 Safari/537.36 Edg/96.0.1054.43" etag="vzmmaM7J_p4Cvu8FotJ3" version="15.9.1" type="github">
  <diagram name="Page-1" id="929967ad-93f9-6ef4-fab6-5d389245f69c">
    <mxGraphModel dx="745" dy="856" grid="1" gridSize="10" guides="1" tooltips="1" connect="1" arrows="1" fold="1" page="1" pageScale="1.5" pageWidth="1169" pageHeight="826" background="none" math="0" shadow="0">
      <root>
        <mxCell id="0" style=";html=1;" />
        <mxCell id="1" style=";html=1;" parent="0" />
        <mxCell id="85lfOEWLglNDqftX4UPx-5" value="" style="edgeStyle=orthogonalEdgeStyle;rounded=0;orthogonalLoop=1;jettySize=auto;html=1;" edge="1" parent="1" source="85lfOEWLglNDqftX4UPx-1" target="85lfOEWLglNDqftX4UPx-4">
          <mxGeometry relative="1" as="geometry" />
        </mxCell>
        <mxCell id="85lfOEWLglNDqftX4UPx-1" value="DGA Domain" style="ellipse;whiteSpace=wrap;html=1;" vertex="1" parent="1">
          <mxGeometry x="500" y="410" width="120" height="80" as="geometry" />
        </mxCell>
        <mxCell id="85lfOEWLglNDqftX4UPx-10" value="" style="edgeStyle=orthogonalEdgeStyle;rounded=0;orthogonalLoop=1;jettySize=auto;html=1;" edge="1" parent="1" source="85lfOEWLglNDqftX4UPx-4" target="85lfOEWLglNDqftX4UPx-9">
          <mxGeometry relative="1" as="geometry" />
        </mxCell>
        <mxCell id="85lfOEWLglNDqftX4UPx-4" value="DGA Filtering" style="whiteSpace=wrap;html=1;" vertex="1" parent="1">
          <mxGeometry x="700" y="420" width="120" height="60" as="geometry" />
        </mxCell>
        <mxCell id="85lfOEWLglNDqftX4UPx-8" style="edgeStyle=orthogonalEdgeStyle;rounded=0;orthogonalLoop=1;jettySize=auto;html=1;" edge="1" parent="1" source="85lfOEWLglNDqftX4UPx-7" target="85lfOEWLglNDqftX4UPx-4">
          <mxGeometry relative="1" as="geometry" />
        </mxCell>
        <mxCell id="85lfOEWLglNDqftX4UPx-7" value="Whitelist" style="shape=cylinder3;whiteSpace=wrap;html=1;boundedLbl=1;backgroundOutline=1;size=8.705882352941217;" vertex="1" parent="1">
          <mxGeometry x="830" y="560" width="60" height="80" as="geometry" />
        </mxCell>
        <mxCell id="85lfOEWLglNDqftX4UPx-12" value="" style="edgeStyle=orthogonalEdgeStyle;rounded=0;orthogonalLoop=1;jettySize=auto;html=1;" edge="1" parent="1" source="85lfOEWLglNDqftX4UPx-9" target="85lfOEWLglNDqftX4UPx-11">
          <mxGeometry relative="1" as="geometry" />
        </mxCell>
        <mxCell id="85lfOEWLglNDqftX4UPx-14" value="" style="edgeStyle=orthogonalEdgeStyle;rounded=0;orthogonalLoop=1;jettySize=auto;html=1;" edge="1" parent="1" source="85lfOEWLglNDqftX4UPx-9" target="85lfOEWLglNDqftX4UPx-13">
          <mxGeometry relative="1" as="geometry" />
        </mxCell>
        <mxCell id="85lfOEWLglNDqftX4UPx-9" value="DGA Core" style="whiteSpace=wrap;html=1;" vertex="1" parent="1">
          <mxGeometry x="900" y="420" width="120" height="60" as="geometry" />
        </mxCell>
        <mxCell id="85lfOEWLglNDqftX4UPx-11" value="DGA Predictor" style="shape=hexagon;perimeter=hexagonPerimeter2;whiteSpace=wrap;html=1;fixedSize=1;" vertex="1" parent="1">
          <mxGeometry x="1040" y="290" width="120" height="80" as="geometry" />
        </mxCell>
        <mxCell id="85lfOEWLglNDqftX4UPx-13" value="DGA Execute" style="shape=hexagon;perimeter=hexagonPerimeter2;whiteSpace=wrap;html=1;fixedSize=1;" vertex="1" parent="1">
          <mxGeometry x="1090" y="530" width="120" height="80" as="geometry" />
        </mxCell>
      </root>
    </mxGraphModel>
  </diagram>
</mxfile>
